<?xml version="1.0" encoding="UTF-8"?>
<svg version="1.1" xmlns="http://www.w3.org/2000/svg" width="400" height="400">
<path d="M0 0 C132 0 264 0 400 0 C400 132 400 264 400 400 C268 400 136 400 0 400 C0 268 0 136 0 0 Z " fill="#8B18F1" transform="translate(0,0)"/>
<path d="M0 0 C1.00182541 -0.00445668 1.00182541 -0.00445668 2.02388972 -0.0090034 C4.272424 -0.01770764 6.52090514 -0.0192001 8.76945496 -0.02069092 C10.37738153 -0.0253179 11.98530701 -0.03034239 13.5932312 -0.03573608 C17.96934156 -0.04887422 22.34543657 -0.05530786 26.72156358 -0.05974674 C29.45436896 -0.06267536 32.18717011 -0.06677978 34.91997337 -0.07125092 C43.46668981 -0.08492995 52.01339664 -0.09459445 60.56012326 -0.09845281 C70.43261202 -0.10293386 80.30496234 -0.12048223 90.17740899 -0.1494534 C97.8037942 -0.17105795 105.43014043 -0.18115644 113.05655593 -0.18249393 C117.61356178 -0.18354289 122.17043758 -0.18947003 126.72741127 -0.20731354 C131.01443478 -0.22377291 135.30123019 -0.22596016 139.588274 -0.21717453 C141.16165019 -0.21640299 142.73503853 -0.22076226 144.30838394 -0.23063278 C146.45691972 -0.24332106 148.60464381 -0.23749322 150.75317383 -0.22705078 C152.55645252 -0.22925062 152.55645252 -0.22925062 154.39616108 -0.2314949 C158.80080989 0.28515662 161.24099049 1.82792288 164.35575294 4.91085148 C166.02200323 7.97782642 165.94472692 10.3295324 165.94801331 13.81388855 C165.95269328 14.48348101 165.95737325 15.15307346 165.96219504 15.8429566 C165.97415602 18.08546795 165.96468392 20.32736942 165.95524597 22.56988525 C165.95931124 24.1781093 165.96465287 25.78633055 165.97117615 27.39454651 C165.98486205 31.76234421 165.97954558 36.12992952 165.97003889 40.49773097 C165.96244758 45.06781385 165.96948655 49.63787845 165.97419739 54.20796204 C165.97965703 61.88397488 165.97245843 69.55990117 165.95817566 77.23590088 C165.94185455 86.10983311 165.94713287 94.98355851 165.96365488 103.85748571 C165.97727072 111.47543385 165.97918875 119.09331974 165.97133887 126.71127611 C165.96666215 131.26152566 165.96603736 135.81167801 165.97594833 140.36192131 C165.98461695 144.64079272 165.97859806 148.91939765 165.96126556 153.19824028 C165.9572999 154.76838234 165.95843615 156.33854684 165.96505356 157.90867996 C165.97325645 160.05275955 165.96296368 162.19598629 165.94801331 164.3400116 C165.94688223 165.53959975 165.94575115 166.73918791 165.9445858 167.97512722 C165.4201504 172.37221349 163.87644019 174.81670611 160.79860497 177.92829132 C157.72436408 179.59818679 155.35486741 179.5240466 151.86238098 179.53485107 C151.18941054 179.54094218 150.51644009 179.54703328 149.82307661 179.55330896 C147.56910973 179.56995181 145.31570699 179.56516154 143.06169128 179.56036377 C141.44523532 179.56770343 139.8287846 179.57628936 138.21234131 179.58602905 C133.82177314 179.6082659 129.43139253 179.61117462 125.04077578 179.60928154 C121.37526447 179.60916193 117.70979303 179.61772241 114.04429281 179.62605906 C105.39593119 179.64530134 96.7476661 179.64817411 88.09928894 179.64141846 C79.17870236 179.63477832 70.25852934 179.6576389 61.33802664 179.69473219 C53.67844337 179.72542616 46.01899315 179.73678951 38.35934961 179.73289537 C33.78494274 179.73082737 29.21085757 179.73631469 24.63650894 179.76078796 C20.33370727 179.78304738 16.03157783 179.78118435 11.72877312 179.76086044 C10.1509785 179.75744881 8.57313872 179.76254621 6.9954052 179.77684402 C4.83805805 179.79504296 2.68298998 179.7822874 0.52571106 179.76190186 C-1.28335 179.76297062 -1.28335 179.76297062 -3.12895775 179.76406097 C-7.56716782 178.92635839 -9.23446257 177.28849075 -12.43293762 174.14044189 C-13.85853875 171.28923963 -13.57211752 168.86512528 -13.58683777 165.67626953 C-13.59122002 165.00500794 -13.59560228 164.33374634 -13.60011733 163.64214349 C-13.61352261 161.3821334 -13.61968805 159.12216232 -13.62580872 156.86212158 C-13.63370835 155.24596479 -13.64197722 153.62980977 -13.65058899 152.01365662 C-13.67682613 146.69656055 -13.69211876 141.37945655 -13.70637512 136.06231689 C-13.71173419 134.23297368 -13.7171117 132.40363052 -13.72250748 130.57428741 C-13.74413908 122.96522072 -13.76287611 115.35615617 -13.77412987 107.7470665 C-13.79037061 96.83724867 -13.82354811 85.92778693 -13.88053071 75.01810336 C-13.91921782 67.35009209 -13.93876112 59.68217611 -13.94405043 52.0140698 C-13.94770572 47.43289113 -13.9597455 42.8520921 -13.99215317 38.27101898 C-14.02221214 33.96008334 -14.02855358 29.64975746 -14.01676941 25.3387394 C-14.01654849 23.75770356 -14.02486913 22.17663962 -14.04242325 20.59570122 C-14.06511746 18.43391755 -14.05682232 16.27434459 -14.04093933 14.11254883 C-14.04424948 12.90391048 -14.04755962 11.69527214 -14.05097008 10.45000839 C-13.22070218 6.00392016 -11.58611887 4.34206467 -8.43293762 1.14044189 C-5.58757654 -0.28223865 -3.18254585 0.00788224 0 0 Z " fill="#FDFCFE" transform="translate(123.43293762207031,114.85955810546875)"/>
<path d="M0 0 C2.20349063 0.95981547 3.77468047 2.13417198 5.61140442 3.68630981 C6.32038879 4.27863403 7.02937317 4.87095825 7.75984192 5.48123169 C8.49202942 6.10449341 9.22421692 6.72775513 9.97859192 7.36990356 C16.20530636 12.60600434 22.49706469 17.72218178 28.85359192 22.80740356 C28.85359192 41.28740356 28.85359192 59.76740356 28.85359192 78.80740356 C-17.01640808 78.80740356 -62.88640808 78.80740356 -110.14640808 78.80740356 C-110.14640808 66.92740356 -110.14640808 55.04740356 -110.14640808 42.80740356 C-95.60372515 30.68850113 -95.60372515 30.68850113 -90.70890808 26.80740356 C-90.13720886 26.34463013 -89.56550964 25.88185669 -88.97648621 25.40505981 C-85.68404645 22.79681248 -83.13926541 21.40454649 -79.14640808 19.80740356 C-69.90640808 29.04740356 -60.66640808 38.28740356 -51.14640808 47.80740356 C-47.0588213 44.30375776 -43.27345187 41.05805203 -39.55973816 37.25491333 C-38.73230606 36.41126724 -37.90487396 35.56762115 -37.05236816 34.69841003 C-36.18234665 33.80754196 -35.31232513 32.91667389 -34.41593933 31.99880981 C-33.02154232 30.58413738 -31.62713047 29.1694792 -30.23182964 27.7556982 C-26.81567562 24.29402086 -23.40384129 20.82830746 -20.00798035 17.34671021 C-18.09080778 15.38174573 -16.1672557 13.42348421 -14.2359314 11.47242737 C-12.42177251 9.63943572 -10.61733758 7.79675988 -8.8236084 5.94377136 C-8.00563278 5.1221904 -7.18765717 4.30060944 -6.34489441 3.45413208 C-5.6287648 2.72388321 -4.91263519 1.99363434 -4.17480469 1.24125671 C-2.14640808 -0.19259644 -2.14640808 -0.19259644 0 0 Z " fill="#8B19F1" transform="translate(240.1464080810547,195.19259643554688)"/>
<path d="M0 0 C0.66 0 1.32 0 2 0 C13.05873846 12.70260499 25.35719687 35.27842268 25.23046875 52.38671875 C24.88518005 56.30194152 23.86518894 61.13481106 21 64 C18.26499935 64.03929048 15.5536693 64.01677852 12.8203125 63.95703125 C11.08725189 63.93457583 9.354178 63.9131281 7.62109375 63.89257812 C4.90310906 63.85604477 2.18582019 63.81385814 -0.53173828 63.75317383 C-12.21604878 63.50464075 -22.8249026 64.35095757 -34.19580078 67.1315918 C-38 68 -38 68 -42 68 C-42.10853983 65.77191841 -42.18583307 63.54230068 -42.25 61.3125 C-42.29640625 60.07113281 -42.3428125 58.82976562 -42.390625 57.55078125 C-41.93096363 53.37245935 -41.00625953 51.88207669 -38 49 C-35.80859375 47.7421875 -35.80859375 47.7421875 -33.4375 46.875 C-32.57253906 46.55789062 -31.70757812 46.24078125 -30.81640625 45.9140625 C-26.25565755 44.43387499 -21.64996337 43.16691096 -17 42 C-18.03125 41.690625 -19.0625 41.38125 -20.125 41.0625 C-20.70507812 40.88847656 -21.28515625 40.71445313 -21.8828125 40.53515625 C-43.03408584 35.18880118 -67.14030103 39.52719531 -85.88671875 50.01171875 C-90.79684557 53.14754629 -94.92344317 56.85661437 -99 61 C-99.57363281 61.57492188 -100.14726563 62.14984375 -100.73828125 62.7421875 C-110.25657209 73.02292541 -114.6062063 85.34594799 -114.37109375 99.1484375 C-113.89602705 104.07912974 -112.52472372 108.38027643 -110.890625 113.03515625 C-109.64220947 117.19106585 -109.70808456 120.69424731 -110 125 C-110.66 125 -111.32 125 -112 125 C-118.45570968 112.08858065 -121.45296309 99.45579352 -121.5 85.0625 C-121.50612305 84.03318359 -121.51224609 83.00386719 -121.51855469 81.94335938 C-121.26169801 66.30028385 -115.24033614 52.71949581 -105 41 C-104.50242187 40.40832031 -104.00484375 39.81664062 -103.4921875 39.20703125 C-91.4629969 25.99910086 -72.25971455 17.98817773 -55 15 C-54.27554688 14.86980469 -53.55109375 14.73960938 -52.8046875 14.60546875 C-35.68691482 12.00661662 -18.14426014 15.59992858 -2.2109375 21.79296875 C0.74029728 23.1172907 0.74029728 23.1172907 3 23 C2.6390625 22.38253906 2.278125 21.76507813 1.90625 21.12890625 C-1.23992716 15.38713293 -3.21881324 10.59442108 -2 4 C-0.97265625 1.7421875 -0.97265625 1.7421875 0 0 Z " fill="#FDFBFE" transform="translate(217,37)"/>
<path d="M0 0 C3.34888409 1.03905109 4.11738758 2.190067 6 5.23828125 C6.68227277 6.58858135 7.348144 7.94725634 8 9.3125 C8.34812744 10.02656006 8.69625488 10.74062012 9.05493164 11.47631836 C16.56162364 27.28237811 20.4954856 46.46159209 14.8984375 63.53515625 C14.45371094 64.75525391 14.45371094 64.75525391 14 66 C13.74476563 66.80308594 13.48953125 67.60617187 13.2265625 68.43359375 C6.57477778 87.50407747 -9.20047504 100.5305229 -26.79663086 109.1953125 C-39.42004212 115.17159905 -51.64389522 118.20103971 -65.625 118.1875 C-66.49946777 118.18669434 -67.37393555 118.18588867 -68.27490234 118.18505859 C-79.06981903 118.08409752 -89.46323147 116.28215724 -100 114 C-99.4946875 114.70125 -98.989375 115.4025 -98.46875 116.125 C-94.39825037 122.06922169 -91.98428333 125.76301876 -93 133 C-93.5 135.5 -93.5 135.5 -94 137 C-105.36167087 131.99189508 -111.94776233 117.19696075 -118 107 C-118.4026709 106.33178223 -118.8053418 105.66356445 -119.22021484 104.97509766 C-124.02988504 96.86396432 -126.80480765 89.50793595 -125 80 C-124.13671875 77.16796875 -124.13671875 77.16796875 -122 75 C-118.40598442 74.28176147 -114.84198621 74.35531799 -111.1875 74.375 C-102.00593989 74.1962766 -93.87605637 73.48245869 -85 71 C-84.28521484 70.80325684 -83.57042969 70.60651367 -82.83398438 70.40380859 C-74.06362028 68.16423139 -74.06362028 68.16423139 -65.6953125 64.84765625 C-64 64 -64 64 -61 64 C-59.127813 69.73357267 -57.6809118 74.94526943 -60.1875 80.75 C-63.7487113 85.17081403 -68.99852838 86.95903853 -74.125 89.125 C-74.74503906 89.38925781 -75.36507812 89.65351563 -76.00390625 89.92578125 C-78.64856708 91.04620745 -81.27392616 92.09130872 -84 93 C-63.77405466 98.00642211 -39.78063208 92.2419112 -22.19384766 81.80224609 C-7.28903707 72.3422287 2.74466479 59.22279858 7.375 42.1484375 C9.95590321 29.14713757 5.92667606 17.96353425 0.734375 6.12109375 C0 4 0 4 0 0 Z " fill="#FDFBFE" transform="translate(291,234)"/>
<path d="M0 0 C6.2913916 3.45409735 9.91854063 6.89458801 12.1875 13.75 C13.15395545 19.34372701 12.29679738 23.95214753 9.53125 28.890625 C6.56101681 33.00059883 3.00568157 36.14393948 -1.8125 37.75 C-7.62362953 38.22326956 -12.96023588 38.60997977 -18.3125 36.125 C-23.82353599 30.88951581 -27.77079166 26.28774747 -28.1875 18.4375 C-28.03806957 12.82451961 -26.23432978 8.30133939 -22.3515625 4.2109375 C-15.75584087 -1.51428279 -8.32042422 -3.33911762 0 0 Z " fill="#8C1BF1" transform="translate(167.8125,146.25)"/>
</svg>
